<svg width="1429" height="1457" viewBox="0 0 1429 1457" fill="none" xmlns="http://www.w3.org/2000/svg">
<g clip-path="url(#clip0_15_13)">
<path d="M1427.42 746.03C1428.29 696.026 1423.11 646.023 1412.19 597.456H729.025V867.303H1130.12C1114.88 962.999 1061.12 1048.06 981.472 1103.24L980.035 1112.15L1195.97 1279.4L1210.92 1280.84C1348.07 1154.1 1427.42 967.597 1427.42 746.03Z" fill="#4285F4"/>
<path d="M729.026 1457C925.405 1457 1090.44 1392.34 1210.92 1280.84L981.473 1102.95C907.004 1152.95 818.733 1178.24 729.313 1175.66C540.697 1174.51 373.932 1052.66 315.277 873.337L306.651 874.2L82.094 1047.78L79.2188 1055.82C202.28 1302.1 453.864 1457.29 729.026 1457Z" fill="#34A853"/>
<path d="M314.989 873.625C299.175 827.357 290.837 778.79 290.837 729.649C291.125 680.795 299.175 632.228 314.414 585.673L314.127 576.19L86.6943 399.741L79.2187 403.189C-24.2903 608.663 -24.2903 850.635 79.2187 1056.11L314.989 873.625Z" fill="#FBBC05"/>
<path d="M729.025 283.928C833.397 282.204 934.031 321 1010.22 392.269L1215.52 191.968C1083.83 68.3956 909.304 0.862123 728.738 2.87376C453.576 2.87376 201.992 157.77 78.6436 403.764L313.839 586.248C373.069 406.925 540.121 285.078 729.025 283.928Z" fill="#EB4335"/>
</g>
<defs>
<clipPath id="clip0_15_13">
<rect width="1429" height="1457" fill="white"/>
</clipPath>
</defs>
</svg>
