<svg width="2500" height="1660" viewBox="0 0 2500 1660" fill="none" xmlns="http://www.w3.org/2000/svg">
<g clip-path="url(#clip0_15_4)">
<path d="M270.209 1095.08C270.209 1190.68 291.154 1263.77 318.531 1308.1C333.12 1333.33 354.129 1354.26 379.423 1368.74C404.717 1383.23 433.395 1390.76 462.543 1390.58C532.941 1390.58 597.342 1373.19 721.451 1201.46C820.877 1063.88 938.033 871.196 1016.95 749.52L1150.44 544.41C1243.18 401.963 1350.34 243.612 1473.58 135.929C1573.96 48.6702 1682.34 0 1791.41 0C1974.53 0 2148.96 106.118 2282.46 305.145C2428.56 523.117 2499.74 797.669 2499.74 1081C2499.74 1249.43 2466.54 1373.19 2410.04 1470.97C2355.55 1565.53 2248.82 1660 2069.87 1660V1390.58C2223.1 1390.58 2261.08 1249.78 2261.08 1088.65C2261.08 859.028 2207.54 604.205 2089.6 422.127C2005.91 292.977 1897.44 214.062 1778.11 214.062C1649.05 214.062 1545.19 311.402 1428.47 484.963C1366.42 577.176 1302.71 689.552 1231.18 816.355L1152.44 955.413C994.264 1235.87 954.198 1299.75 875.109 1405.18C736.747 1590.47 618.374 1660 462.543 1660C277.683 1660 160.788 1579.95 88.8255 1459.32C29.2915 1361.03 0.263184 1232.05 0.263184 1085.08L270.209 1095.08Z" fill="#0081FB"/>
<path d="M213.108 324.178C336.87 133.408 515.472 0 720.321 0C838.954 0 956.893 34.7644 1080.05 135.668C1214.76 245.61 1358.16 426.646 1537.46 725.011L1601.69 832.086C1756.73 1090.39 1845.04 1223.19 1896.57 1285.94C1962.97 1366.41 2009.56 1390.23 2069.87 1390.23C2223.1 1390.23 2261.08 1249.43 2261.08 1088.3L2499.22 1080.83C2499.22 1249.26 2466.01 1373.02 2409.52 1470.79C2355.55 1565.53 2248.82 1660 2069.87 1660C1958.63 1660 1860.07 1635.84 1751.09 1533.02C1667.3 1454.11 1569.35 1313.92 1494 1187.9L1269.86 813.487C1157.4 625.585 1054.23 485.485 994.525 422.387C930.211 353.815 847.732 271.423 715.975 271.423C609.336 271.423 518.774 346.253 442.988 460.715L213.108 324.178Z" fill="url(#paint0_linear_15_4)"/>
<path d="M715.975 271.423C609.335 271.423 518.774 346.253 442.988 460.715C335.827 622.457 270.209 863.374 270.209 1095.08C270.209 1190.68 291.154 1263.77 318.531 1308.1L88.3909 1459.32C29.2915 1361.03 0.263184 1232.05 0.263184 1085.08C0.263184 817.832 73.6161 539.283 213.108 324.178C336.869 133.408 515.472 0 720.321 0L715.975 271.423Z" fill="url(#paint1_linear_15_4)"/>
</g>
<defs>
<linearGradient id="paint0_linear_15_4" x1="542.066" y1="786.979" x2="2262.9" y2="873.89" gradientUnits="userSpaceOnUse">
<stop stop-color="#0064E1"/>
<stop offset="0.4" stop-color="#0064E1"/>
<stop offset="0.83" stop-color="#0073EE"/>
<stop offset="1" stop-color="#0082FB"/>
</linearGradient>
<linearGradient id="paint1_linear_15_4" x1="360.248" y1="1208.06" x2="360.248" y2="573.613" gradientUnits="userSpaceOnUse">
<stop stop-color="#0082FB"/>
<stop offset="1" stop-color="#0064E0"/>
</linearGradient>
<clipPath id="clip0_15_4">
<rect width="2500" height="1660" fill="white"/>
</clipPath>
</defs>
</svg>
